Patient4_TMGait_0pt6_02_right_43_EMG.mot
version=1
nRows=23
nColumns=33
inDegrees=no
endheader
time	1LAddLong	2LGlutMax	3LGlutMed	4LIliopsoas	5LSemiMemb	6LBicFemLong	7LRecFem	8LVastMed	9LVastLat	10LGasMed	11LTibAnt	12lTibPost	13LPeroneusLong	14LSol	15LExtDigLong	16LFlexDigLong	17RAddLong	18RGlutMax	19RGlutMed	20RIliopsoas	21RSemiMemb	22RBicFemLong	23RRecFem	24RVastMed	25RVastLat	26RGasMed	27RTibAnt	28RTibPost	29RPeroneusLong	30RSol	31RExtDigLong	32RFlexDigLong
51.89	-0.00946	-0.21103	-0.016327	0.008698	-0.018768	-0.15198	0.047455	0.006104	0.60242	0.000153	0.15823	-0.006866	0.016327	0.031891	-0.095367	0.18417	0.076599	-0.19699	0.3183	0.030823	0.020142	0.016479	0.057983	-0.098877	-0.005341	-0.021057	-0.40832	-0.012207	0.005951	0.001526	-0.003815	-0.016022
51.891	0.00946	-0.18677	0.12161	0.014038	-0.031738	-0.15869	0.090179	-0.003204	0.58624	-0.12009	0.17929	0.005035	0.022888	-0.056915	0.22553	0.25146	0.048828	-0.19501	0.23789	0.071259	0.018463	0.012512	0.094757	-0.12177	0.019379	-0.011292	-0.1506	-0.021667	0.02182	0.020905	-0.002136	-0.017242
51.892	-0.019226	-0.20966	0.042419	-0.005341	-0.10773	-0.22614	0.064697	-0.001221	0.10452	-0.16586	0.077057	0.009766	-0.000458	-0.11917	0.32471	-0.067596	0.008087	-0.21606	-0.15854	0.038452	0.001831	0.024261	0.080566	-0.064697	0.001373	-0.009766	0.15137	-0.019684	0.40451	-0.028381	-0.002441	-0.017242
51.893	-0.037994	-0.18204	-0.027771	0.006409	-0.20172	-0.1915	0.13916	-0.017853	-0.59357	-0.039978	-0.042267	0.029602	0.007782	-0.016785	0.06485	-0.070343	0.000153	-0.1828	-0.23056	-0.13901	-0.010834	0.025482	0.10147	-0.007782	0.028076	-0.009766	0.27039	-0.019226	0.19104	-0.085449	0.000763	-0.017548
51.894	-0.013733	-0.19379	0.028992	0.006409	-0.10986	-0.10452	0.12878	-0.004578	-0.82809	0.18433	-0.017395	0.012512	-0.036163	0.23453	-0.34714	0.12802	-0.007477	-0.17914	0.23865	-0.26199	-0.018311	0.013428	0.1181	-0.008698	0.019226	-0.018616	0.37979	-0.019379	-0.086517	-0.008545	-0.002136	-0.01358
51.895	0.002289	-0.18417	0.078583	0.015564	0.054474	-0.058746	0.14923	0.000763	-0.59311	0.30258	-0.075531	0.001221	-0.056763	0.18494	-0.25665	0.10773	-0.010681	-0.18021	0.62576	-0.17746	-0.012512	0.026093	0.11063	-0.016022	0.032654	-0.014496	0.31387	-0.012665	-0.19943	0.052948	-0.00351	-0.014648
51.896	0.009766	-0.18921	0.080872	-0.00946	0.10117	0.040741	0.17731	-0.000458	-0.33142	0.2887	-0.15808	0.002899	-0.028839	0.050659	-0.18219	0.033112	0.044708	-0.24841	0.40161	-0.023804	-0.025482	0.032043	0.11841	-0.049744	0.012054	-0.012054	0.22781	-0.019073	-0.18005	0.11124	-0.001373	-0.011749
51.897	0.00061	-0.17944	0.03952	0.006256	0.046997	0.095825	0.15808	0.003204	-0.1503	0.22278	-0.019989	-0.011597	0.054932	0.02243	-0.16403	0.001068	0.036469	-0.2533	0.11414	0.11566	-0.037994	0.015869	0.030212	-0.093079	0.011597	-0.010986	0.39887	-0.013428	-0.14374	0.12253	-0.001373	-0.008392
51.898	0.000305	-0.19333	0.020294	0.012665	-0.00351	0.081482	0.15442	0.010376	-0.10666	0.2623	0.045166	-0.003204	0.05249	0.054932	-0.011749	-0.02594	-0.009766	-0.25284	0.048218	0.27634	-0.03067	0.045319	-0.031281	-0.084076	0.006409	-0.015259	0.15076	-0.016327	0.012817	0.024567	-0.001373	-0.020142
51.899	-0.008087	-0.19898	0.018005	0.009766	0.011749	0.040741	0.16159	0.006409	-0.078735	0.053711	0.1033	0.005798	0.061493	-0.02594	0.12543	0.24262	-0.052185	-0.2211	0.11597	0.18036	-0.043793	0.002594	-0.080719	-0.12512	0.006561	-0.010834	0.079346	-0.005798	0.075531	-0.042572	-0.00061	-0.015259
51.9	0.015106	-0.19684	0.02594	0.01358	0.020447	0.006104	0.16586	-0.040131	-0.063477	-0.1532	0.11734	0.013428	0.091705	-0.020142	0.44769	-0.50125	-0.054169	-0.27359	0.014191	0.097656	-0.035858	-0.010834	-0.12329	-0.10757	-0.019226	-0.01358	-0.25116	-0.012665	0.031738	-0.06012	-0.004578	-0.008087
51.901	0.011292	-0.16022	0.006104	0.003052	0.002594	0.00824	0.13931	0.009155	-0.056915	0.050964	-0.14618	0.007935	0.064087	0.065765	-0.12482	-0.49728	-0.080872	-0.31342	0.14206	0.090332	-0.036316	0.012512	-0.12787	-0.087128	-0.019989	-0.005493	-0.25971	-0.016785	0.057678	-0.053711	-0.000916	-0.004883
51.902	0.015869	-0.1088	-0.004425	0.001831	-0.006714	-0.014038	0.091858	0.019684	-0.016022	0.22263	-0.11215	0.009613	0.052032	0.11734	0.037689	0.012207	-0.07782	-0.31921	-0.006561	0.11566	-0.026093	0.032654	-0.057831	-0.001373	-0.006256	-0.014343	-0.13123	-0.008698	0.055695	0.023499	-0.001526	-0.005341
51.903	0.009613	-0.086823	0.063171	0.01236	-0.011292	-0.054779	0.066986	0.022583	0.018768	0.053406	0.022888	0.020447	0.03891	0.076904	-0.21255	0.49698	-0.082092	-0.31174	0.048676	0.007477	-0.013885	0.047913	0.006561	-0.005341	-0.015717	-0.006409	0.042114	-0.009613	-0.035858	0.080109	0.001526	-0.006561
51.904	0.004425	-0.10452	0.062256	-0.004578	-0.034943	0.049438	0.071716	0.016785	0.032501	-0.085754	0.086365	0.022278	0.000153	0.00412	-0.033722	0.18158	-0.068207	-0.28564	0.031891	-0.081635	0.007019	0.045929	0.037079	-0.03067	-0.015259	-0.006256	0.16556	-0.010986	-0.12161	0.061188	0.00061	-0.007477
51.905	-0.004578	-0.11643	0.02121	0.004425	-0.12756	0.21301	0.098419	0.010376	0.027161	-0.018005	0.10971	0.026398	-0.063171	0.077667	0.51483	-0.35019	-0.057526	-0.27359	0.22034	-0.16724	-0.010681	0.05127	0.014954	-0.066681	-0.008698	-0.008392	0.20554	-0.015564	-0.13245	0.048981	0.000763	-0.018768
51.906	-0.009766	-0.11871	0.018158	0.009308	-0.16403	0.22186	0.12146	0.00824	0.039978	0.032349	0.083466	0.025635	-0.079803	0.12192	0.007477	0.59418	-0.030212	-0.25085	0.29816	-0.018921	-0.010529	0.043488	0.045929	-0.032349	-0.012665	-0.010376	0.13504	-0.012054	-0.11383	0.029297	-0.000153	-0.013123
51.907	-0.006561	-0.13718	-0.031586	-0.003967	-0.1445	0.1535	0.10941	0.009003	0.023041	0.016785	-0.12299	0.023499	-0.053406	0.15045	-0.25085	-0.42191	0.031891	-0.21027	0.28	0.068359	-0.006714	0.026855	0.10819	-0.072784	-0.010071	-0.016022	-0.053711	-0.014496	-0.036469	0.036469	0.00061	-0.018921
51.908	-0.009766	-0.18066	-0.058594	0.001526	0.007324	0.13534	0.12695	0.002899	0.003815	0.005188	-0.14862	0.015564	0.020752	0.1828	-0.044861	0.071106	0.12085	-0.19455	0.13412	0.14999	-0.014343	-0.011292	0.15518	-0.1001	-0.015106	-0.016937	-0.03418	-0.014038	0.002136	0.027313	-0.001678	-0.017395
51.909	-0.006409	-0.18051	-0.054932	0.005493	0.073395	0.10819	0.17563	-0.001984	-0.004272	0.035248	-0.084686	0.018463	0.034637	0.26474	0.020294	0.33859	0.11734	-0.22781	0.11627	0.19531	-0.039978	-0.003967	0.19226	-0.12894	-0.018921	-0.01358	0.007324	-0.015106	0.026703	-0.069885	-0.002136	-0.016785
51.91	-0.009918	-0.1831	0.017242	-0.003815	0.009308	0.044098	0.14816	0.01236	-0.00824	0.082245	-0.12207	0.011749	0.022888	0.26733	-0.099792	0.078583	0.092773	-0.23193	-0.005951	0.13412	-0.046234	-0.01358	0.27298	-0.15915	-0.018768	-0.011292	-0.066528	-0.009613	0.016632	-0.064087	-0.003815	-0.018311
51.911	-0.005035	-0.1767	0.22049	0.004883	0.028076	-0.027313	-0.010529	0.00885	0.028687	0.17975	-0.11688	0.017242	-0.011292	-0.01709	-0.14893	-0.16251	0.056	-0.23315	0.002441	0.093536	-0.051727	-0.002136	0.23758	-0.060272	-0.016022	-0.00946	-0.13489	-0.007935	0.051117	-0.077972	-0.004272	-0.023499
51.912	0.012512	-0.15991	0.14358	0.000916	0.028381	-0.18433	0.001678	-0.02121	0.084991	0.10544	-0.084839	0.014191	-0.046234	-0.29892	-0.24231	-0.076599	0.037537	-0.24979	0.013275	-0.049591	-0.059662	0.009613	0.2153	-0.071411	-0.00473	-0.009155	-0.023651	-0.005646	0.002441	-0.048065	0.00061	-0.024109
